<svg width="40" height="40" viewBox="0 0 40 40" fill="none" xmlns="http://www.w3.org/2000/svg">
  <defs>
    <linearGradient id="rocketGradient" x1="0" y1="0" x2="40" y2="40" gradientUnits="userSpaceOnUse">
      <stop stop-color="#10B981"/> <!-- emerald-500 -->
      <stop offset="1" stop-color="#059669"/> <!-- emerald-600 -->
    </linearGradient>
    <filter id="glow" x="-20%" y="-20%" width="140%" height="140%">
      <feGaussianBlur stdDeviation="1.5" result="blur" />
      <feComposite in="SourceGraphic" in2="blur" operator="over" />
    </filter>
  </defs>
  <path d="M32.5 7.5C32.5 7.5 28.5 6.5 24 8.5C19.5 10.5 16.5 14.5 15 16L12 19L7 20L5 25L9 26L10 31L15 29L16 24L19 21L24 19.5C25.5 18 29.5 15 31.5 10.5C33.5 6 32.5 7.5 32.5 7.5Z" stroke="url(#rocketGradient)" stroke-width="2.5" stroke-linecap="round" stroke-linejoin="round" filter="url(#glow)"/>
  <path d="M12 19L16 24" stroke="url(#rocketGradient)" stroke-width="2.5" stroke-linecap="round" stroke-linejoin="round"/>
  <path d="M10 21C9 21 7 23 7 25C7 27 9 27 10 27" stroke="url(#rocketGradient)" stroke-width="2" stroke-linecap="round" stroke-linejoin="round" opacity="0.6"/>
  <path d="M14 25C14 26 13 28 11 28C9 28 9 26 9 25" stroke="url(#rocketGradient)" stroke-width="2" stroke-linecap="round" stroke-linejoin="round" opacity="0.6"/>
  <circle cx="26" cy="14" r="2" fill="url(#rocketGradient)"/>
</svg>
